#
#
#

mtllib pellet.mtl


#
# Sphere.051_Sphere.153_Sphere.051_Sphere.153_Material.006 Mesh Mesh
#
g Sphere.051_Sphere.153_Sphere.051_Sphere.153_Material.006 Mesh Mesh


#
# Sphere.051_Sphere.153_Sphere.051_Sphere.153_Material.006 Mesh Mesh_Sphere.051_Sphere.153_Sphere.051_Sphere.153_Material.006 Mesh_Material.006
#
usemtl Sphere.051_Sphere.153_Sphere.051_Sphere.153_Material.006 Mesh Mesh_Sphere.051_Sphere.153_Sphere.051_Sphere.153_Material.006 Mesh_Material.006

v -0.100175 0.541856 -0.508110
v -0.100175 0.687481 -0.290165
v 0.028370 0.687481 -0.255725
v 0.137340 0.541856 -0.444465
v -0.100175 -0.553829 -0.290165
v -0.100175 -0.408204 -0.508110
v 0.137340 -0.408204 -0.444465
v 0.028370 -0.553829 -0.255725
v -0.100175 -0.190259 -0.653735
v -0.100175 0.066826 -0.704875
v 0.235725 0.066826 -0.614870
v 0.210155 -0.190259 -0.570585
v -0.100175 0.323911 -0.653735
v 0.210155 0.323911 -0.570585
v -0.100175 0.738616 -0.033080
v -0.100175 -0.604969 -0.033080
v 0.481615 0.066826 -0.368975
v 0.437330 -0.190259 -0.343410
v 0.311215 0.541856 -0.270595
v 0.437330 0.323911 -0.343410
v 0.122465 0.687481 -0.161620
v 0.122465 -0.553829 -0.161620
v 0.311215 -0.408204 -0.270595
v 0.156910 -0.553829 -0.033080
v 0.520485 -0.190259 -0.033080
v 0.374855 -0.408204 -0.033080
v 0.520485 0.323911 -0.033080
v 0.571620 0.066826 -0.033080
v 0.156910 0.687481 -0.033080
v 0.374855 0.541856 -0.033080
v 0.437330 0.323911 0.277245
v 0.481615 0.066826 0.302815
v 0.122465 0.687481 0.095460
v 0.311215 0.541856 0.204435
v 0.311215 -0.408204 0.204435
v 0.122465 -0.553829 0.095460
v 0.437330 -0.190259 0.277245
v 0.137340 -0.408204 0.378305
v 0.028370 -0.553829 0.189560
v 0.235725 0.066826 0.548710
v 0.210155 -0.190259 0.504420
v 0.137340 0.541856 0.378305
v 0.210155 0.323911 0.504420
v 0.028370 0.687481 0.189560
v -0.100175 0.541856 0.441950
v -0.100175 0.323911 0.587575
v -0.100175 0.687481 0.224005
v -0.100175 -0.553829 0.224005
v -0.100175 -0.190259 0.587575
v -0.100175 -0.408204 0.441950
v -0.100175 0.066826 0.638710
v -0.228715 -0.553829 0.189560
v -0.410500 -0.190259 0.504420
v -0.337690 -0.408204 0.378305
v -0.410500 0.323911 0.504420
v -0.436070 0.066826 0.548710
v -0.228715 0.687481 0.189560
v -0.337690 0.541856 0.378305
v -0.322815 0.687481 0.095460
v -0.511560 0.541856 0.204435
v -0.511560 -0.408204 0.204435
v -0.322815 -0.553829 0.095460
v -0.681960 0.066826 0.302815
v -0.637675 -0.190259 0.277245
v -0.637675 0.323911 0.277245
v -0.575205 -0.408204 -0.033080
v -0.357260 -0.553829 -0.033080
v -0.771965 0.066826 -0.033080
v -0.720830 -0.190259 -0.033080
v -0.575205 0.541856 -0.033080
v -0.720830 0.323911 -0.033080
v -0.357260 0.687481 -0.033080
v -0.322815 0.687481 -0.161620
v -0.322815 -0.553829 -0.161620
v -0.637675 -0.190259 -0.343410
v -0.511560 -0.408204 -0.270595
v -0.637675 0.323911 -0.343410
v -0.681960 0.066826 -0.368975
v -0.511560 0.541856 -0.270595
v -0.410500 -0.190259 -0.570585
v -0.337690 -0.408204 -0.444465
v -0.410500 0.323911 -0.570585
v -0.436070 0.066826 -0.614870
v -0.228715 0.687481 -0.255725
v -0.337690 0.541856 -0.444465
v -0.228715 -0.553829 -0.255725
vn 0.147203 0.822417 -0.549511
vn 0.147203 -0.822417 -0.549511
vn 0.254191 -0.188694 -0.948568
vn 0.217490 0.542276 -0.811563
vn 0.052203 0.979451 -0.194810
vn 0.052203 -0.979451 -0.194810
vn 0.217490 -0.542276 -0.811563
vn 0.254191 0.188694 -0.948568
vn 0.694403 -0.188701 -0.694403
vn 0.594100 0.542300 -0.594100
vn 0.142608 0.979452 -0.142608
vn 0.142608 -0.979452 -0.142608
vn 0.594100 -0.542300 -0.594100
vn 0.694403 0.188701 -0.694403
vn 0.402294 0.822387 -0.402294
vn 0.402294 -0.822387 -0.402294
vn 0.194810 -0.979451 -0.052203
vn 0.811563 -0.542276 -0.217490
vn 0.948568 0.188694 -0.254191
vn 0.549511 0.822417 -0.147203
vn 0.549511 -0.822417 -0.147203
vn 0.948568 -0.188694 -0.254191
vn 0.811563 0.542276 -0.217490
vn 0.194810 0.979451 -0.052203
vn 0.948568 0.188694 0.254191
vn 0.549511 0.822417 0.147203
vn 0.549511 -0.822417 0.147203
vn 0.948568 -0.188694 0.254191
vn 0.811563 0.542276 0.217490
vn 0.194810 0.979451 0.052203
vn 0.194810 -0.979451 0.052203
vn 0.811563 -0.542276 0.217490
vn 0.402294 -0.822387 0.402294
vn 0.694403 -0.188701 0.694403
vn 0.594100 0.542300 0.594100
vn 0.142608 0.979452 0.142608
vn 0.142608 -0.979452 0.142608
vn 0.594100 -0.542300 0.594100
vn 0.694403 0.188701 0.694403
vn 0.402294 0.822387 0.402294
vn 0.217490 0.542276 0.811563
vn 0.052203 0.979451 0.194810
vn 0.052203 -0.979451 0.194810
vn 0.217490 -0.542276 0.811563
vn 0.254191 0.188694 0.948568
vn 0.147203 0.822417 0.549511
vn 0.147203 -0.822417 0.549511
vn 0.254191 -0.188694 0.948568
vn -0.052203 -0.979451 0.194810
vn -0.217490 -0.542276 0.811563
vn -0.254191 0.188694 0.948568
vn -0.147203 0.822417 0.549511
vn -0.147203 -0.822417 0.549511
vn -0.254191 -0.188694 0.948568
vn -0.217490 0.542276 0.811563
vn -0.052203 0.979451 0.194810
vn -0.402294 0.822387 0.402294
vn -0.402294 -0.822387 0.402294
vn -0.694403 -0.188701 0.694403
vn -0.594100 0.542300 0.594100
vn -0.142608 0.979452 0.142608
vn -0.142608 -0.979452 0.142608
vn -0.594100 -0.542300 0.594100
vn -0.694403 0.188701 0.694403
vn -0.549511 -0.822417 0.147203
vn -0.948568 -0.188694 0.254191
vn -0.811563 0.542276 0.217490
vn -0.194810 0.979451 0.052203
vn -0.194810 -0.979451 0.052203
vn -0.811563 -0.542276 0.217490
vn -0.948568 0.188694 0.254191
vn -0.549511 0.822417 0.147203
vn -0.194810 0.979451 -0.052203
vn -0.194810 -0.979451 -0.052203
vn -0.811563 -0.542276 -0.217490
vn -0.948568 0.188694 -0.254191
vn -0.549511 0.822417 -0.147203
vn -0.549511 -0.822417 -0.147203
vn -0.948568 -0.188694 -0.254191
vn -0.811563 0.542276 -0.217490
vn -0.594100 -0.542300 -0.594100
vn -0.694403 0.188701 -0.694403
vn -0.402294 0.822387 -0.402294
vn -0.402294 -0.822387 -0.402294
vn -0.694403 -0.188701 -0.694403
vn -0.594100 0.542300 -0.594100
vn -0.142608 0.979452 -0.142608
vn -0.142608 -0.979452 -0.142608
vn -0.147203 -0.822417 -0.549511
vn -0.254191 -0.188694 -0.948568
vn -0.217490 0.542276 -0.811563
vn -0.052203 0.979451 -0.194810
vn -0.052203 -0.979451 -0.194810
vn -0.217490 -0.542276 -0.811563
vn -0.254191 0.188694 -0.948568
vn -0.147203 0.822417 -0.549511
vt 0.750000 0.750000
vt 0.750000 0.875000
vt 0.666667 0.875000
vt 0.666667 0.750000
vt 0.750000 0.125000
vt 0.750000 0.250000
vt 0.666667 0.250000
vt 0.666667 0.125000
vt 0.750000 0.375000
vt 0.750000 0.500000
vt 0.666667 0.500000
vt 0.666667 0.375000
vt 0.750000 0.625000
vt 0.666667 0.625000
vt 0.708333 1.000000
vt 0.708333 0.000000
vt 0.583333 0.500000
vt 0.583333 0.375000
vt 0.583333 0.750000
vt 0.583333 0.625000
vt 0.625000 1.000000
vt 0.583333 0.875000
vt 0.625000 0.000000
vt 0.583333 0.125000
vt 0.583333 0.250000
vt 0.541667 0.000000
vt 0.500000 0.125000
vt 0.500000 0.375000
vt 0.500000 0.250000
vt 0.500000 0.625000
vt 0.500000 0.500000
vt 0.500000 0.875000
vt 0.500000 0.750000
vt 0.541667 1.000000
vt 0.416667 0.625000
vt 0.416667 0.500000
vt 0.416667 0.875000
vt 0.416667 0.750000
vt 0.416667 0.250000
vt 0.416667 0.125000
vt 0.416667 0.375000
vt 0.458333 1.000000
vt 0.458333 0.000000
vt 0.333333 0.250000
vt 0.333333 0.125000
vt 0.333333 0.500000
vt 0.333333 0.375000
vt 0.333333 0.750000
vt 0.333333 0.625000
vt 0.375000 1.000000
vt 0.333333 0.875000
vt 0.375000 0.000000
vt 0.250000 0.750000
vt 0.250000 0.625000
vt 0.291667 1.000000
vt 0.250000 0.875000
vt 0.291667 0.000000
vt 0.250000 0.125000
vt 0.250000 0.375000
vt 0.250000 0.250000
vt 0.250000 0.500000
vt 0.208333 0.000000
vt 0.166667 0.125000
vt 0.166667 0.375000
vt 0.166667 0.250000
vt 0.166667 0.625000
vt 0.166667 0.500000
vt 0.166667 0.875000
vt 0.166667 0.750000
vt 0.208333 1.000000
vt 0.083333 0.875000
vt 0.083333 0.750000
vt 0.083333 0.250000
vt 0.083333 0.125000
vt 0.083333 0.500000
vt 0.083333 0.375000
vt 0.083333 0.625000
vt 0.125000 1.000000
vt 0.125000 0.000000
vt 0.000000 0.250000
vt 0.000000 0.125000
vt 0.000000 0.500000
vt 0.000000 0.375000
vt 0.000000 0.750000
vt 0.000000 0.625000
vt 0.041667 1.000000
vt 0.000000 0.875000
vt 0.041667 0.000000
vt 1.000000 0.875000
vt 0.958333 1.000000
vt 0.916667 0.875000
vt 0.958333 0.000000
vt 1.000000 0.125000
vt 0.916667 0.125000
vt 1.000000 0.250000
vt 1.000000 0.375000
vt 0.916667 0.375000
vt 0.916667 0.250000
vt 1.000000 0.500000
vt 1.000000 0.625000
vt 0.916667 0.625000
vt 0.916667 0.500000
vt 1.000000 0.750000
vt 0.916667 0.750000
vt 0.833333 0.375000
vt 0.833333 0.250000
vt 0.833333 0.625000
vt 0.833333 0.500000
vt 0.833333 0.875000
vt 0.833333 0.750000
vt 0.833333 0.125000
vt 0.875000 1.000000
vt 0.875000 0.000000
vt 0.791667 1.000000
vt 0.791667 0.000000
f 1/1/1 2/2/1 3/3/1 4/4/1
f 5/5/2 6/6/2 7/7/2 8/8/2
f 9/9/3 10/10/3 11/11/3 12/12/3
f 13/13/4 1/1/4 4/4/4 14/14/4
f 2/2/5 15/15/5 3/3/5
f 16/16/6 5/5/6 8/8/6
f 6/6/7 9/9/7 12/12/7 7/7/7
f 10/10/8 13/13/8 14/14/8 11/11/8
f 12/12/9 11/11/9 17/17/9 18/18/9
f 14/14/10 4/4/10 19/19/10 20/20/10
f 3/3/11 15/21/11 21/22/11
f 16/23/12 8/8/12 22/24/12
f 7/7/13 12/12/13 18/18/13 23/25/13
f 11/11/14 14/14/14 20/20/14 17/17/14
f 4/4/15 3/3/15 21/22/15 19/19/15
f 8/8/16 7/7/16 23/25/16 22/24/16
f 16/26/17 22/24/17 24/27/17
f 23/25/18 18/18/18 25/28/18 26/29/18
f 17/17/19 20/20/19 27/30/19 28/31/19
f 19/19/20 21/22/20 29/32/20 30/33/20
f 22/24/21 23/25/21 26/29/21 24/27/21
f 18/18/22 17/17/22 28/31/22 25/28/22
f 20/20/23 19/19/23 30/33/23 27/30/23
f 21/22/24 15/34/24 29/32/24
f 28/31/25 27/30/25 31/35/25 32/36/25
f 30/33/26 29/32/26 33/37/26 34/38/26
f 24/27/27 26/29/27 35/39/27 36/40/27
f 25/28/28 28/31/28 32/36/28 37/41/28
f 27/30/29 30/33/29 34/38/29 31/35/29
f 29/32/30 15/42/30 33/37/30
f 16/43/31 24/27/31 36/40/31
f 26/29/32 25/28/32 37/41/32 35/39/32
f 36/40/33 35/39/33 38/44/33 39/45/33
f 37/41/34 32/36/34 40/46/34 41/47/34
f 31/35/35 34/38/35 42/48/35 43/49/35
f 33/37/36 15/50/36 44/51/36
f 16/52/37 36/40/37 39/45/37
f 35/39/38 37/41/38 41/47/38 38/44/38
f 32/36/39 31/35/39 43/49/39 40/46/39
f 34/38/40 33/37/40 44/51/40 42/48/40
f 43/49/41 42/48/41 45/53/41 46/54/41
f 44/51/42 15/55/42 47/56/42
f 16/57/43 39/45/43 48/58/43
f 38/44/44 41/47/44 49/59/44 50/60/44
f 40/46/45 43/49/45 46/54/45 51/61/45
f 42/48/46 44/51/46 47/56/46 45/53/46
f 39/45/47 38/44/47 50/60/47 48/58/47
f 41/47/48 40/46/48 51/61/48 49/59/48
f 16/62/49 48/58/49 52/63/49
f 50/60/50 49/59/50 53/64/50 54/65/50
f 51/61/51 46/54/51 55/66/51 56/67/51
f 45/53/52 47/56/52 57/68/52 58/69/52
f 48/58/53 50/60/53 54/65/53 52/63/53
f 49/59/54 51/61/54 56/67/54 53/64/54
f 46/54/55 45/53/55 58/69/55 55/66/55
f 47/56/56 15/70/56 57/68/56
f 58/69/57 57/68/57 59/71/57 60/72/57
f 52/63/58 54/65/58 61/73/58 62/74/58
f 53/64/59 56/67/59 63/75/59 64/76/59
f 55/66/60 58/69/60 60/72/60 65/77/60
f 57/68/61 15/78/61 59/71/61
f 16/79/62 52/63/62 62/74/62
f 54/65/63 53/64/63 64/76/63 61/73/63
f 56/67/64 55/66/64 65/77/64 63/75/64
f 62/74/65 61/73/65 66/80/65 67/81/65
f 64/76/66 63/75/66 68/82/66 69/83/66
f 65/77/67 60/72/67 70/84/67 71/85/67
f 59/71/68 15/86/68 72/87/68
f 16/88/69 62/74/69 67/81/69
f 61/73/70 64/76/70 69/83/70 66/80/70
f 63/75/71 65/77/71 71/85/71 68/82/71
f 60/72/72 59/71/72 72/87/72 70/84/72
f 72/89/73 15/90/73 73/91/73
f 16/92/74 67/93/74 74/94/74
f 66/95/75 69/96/75 75/97/75 76/98/75
f 68/99/76 71/100/76 77/101/76 78/102/76
f 70/103/77 72/89/77 73/91/77 79/104/77
f 67/93/78 66/95/78 76/98/78 74/94/78
f 69/96/79 68/99/79 78/102/79 75/97/79
f 71/100/80 70/103/80 79/104/80 77/101/80
f 76/98/81 75/97/81 80/105/81 81/106/81
f 78/102/82 77/101/82 82/107/82 83/108/82
f 79/104/83 73/91/83 84/109/83 85/110/83
f 74/94/84 76/98/84 81/106/84 86/111/84
f 75/97/85 78/102/85 83/108/85 80/105/85
f 77/101/86 79/104/86 85/110/86 82/107/86
f 73/91/87 15/112/87 84/109/87
f 16/113/88 74/94/88 86/111/88
f 86/111/89 81/106/89 6/6/89 5/5/89
f 80/105/90 83/108/90 10/10/90 9/9/90
f 82/107/91 85/110/91 1/1/91 13/13/91
f 84/109/92 15/114/92 2/2/92
f 16/115/93 86/111/93 5/5/93
f 81/106/94 80/105/94 9/9/94 6/6/94
f 83/108/95 82/107/95 13/13/95 10/10/95
f 85/110/96 84/109/96 2/2/96 1/1/96
